<svg width="10" height="16" viewBox="0 0 10 16" fill="none" xmlns="http://www.w3.org/2000/svg">
<path d="M8.5 0.407349H1.5C0.672848 0.407349 0 1.04321 0 1.82488V14.1102C0 14.8919 0.672848 15.5277 1.5 15.5277H8.5C9.32715 15.5277 10 14.8919 10 14.1102V1.82488C10 1.04321 9.32715 0.407349 8.5 0.407349ZM1.5 1.35237H8.5C8.77588 1.35237 9 1.56417 9 1.82488V11.7476H1V1.82488C1 1.56417 1.22412 1.35237 1.5 1.35237ZM8.5 14.5827H1.5C1.22412 14.5827 1 14.3709 1 14.1102V12.6926H9V14.1102C9 14.3709 8.77588 14.5827 8.5 14.5827Z" fill="#757575"/>
<path d="M2.35355 13.3036C2.54882 13.4882 2.54882 13.7875 2.35355 13.9721C2.15828 14.1567 1.84172 14.1567 1.64645 13.9721C1.45118 13.7875 1.45118 13.4882 1.64645 13.3036C1.84172 13.119 2.15828 13.119 2.35355 13.3036Z" fill="#757575"/>
</svg>
